<svg width="1512" height="1175" viewBox="0 0 1512 1175" fill="none" xmlns="http://www.w3.org/2000/svg">
<mask id="mask0_99_78" style="mask-type:alpha" maskUnits="userSpaceOnUse" x="0" y="0" width="1512" height="1175">
<rect width="1512" height="1175" fill="#1A1513"/>
</mask>
<g mask="url(#mask0_99_78)">
<path d="M-32.2069 970.599C216.126 859.282 619.121 531.386 244.441 110.334" stroke="#262120"/>
<path d="M1825.15 618.665C1576.82 729.982 1173.82 1057.88 1548.5 1478.93" stroke="#262120"/>
<path d="M-9.27678 966.254C234.553 845.392 624.531 502.116 233.806 95.9092" stroke="#262120"/>
<path d="M13.6536 961.909C252.614 831.683 628.988 473.544 222.806 82.7928" stroke="#262120"/>
<path d="M36.5841 957.564C270.315 818.17 632.519 445.706 211.491 70.9992" stroke="#262120"/>
<path d="M59.5144 953.219C287.664 804.867 635.154 418.639 199.913 60.539" stroke="#262120"/>
<path d="M82.4446 948.874C304.67 791.788 636.922 392.376 188.123 51.4216" stroke="#262120"/>
<path d="M105.375 944.53C321.342 778.944 637.857 366.949 176.175 43.6541" stroke="#262120"/>
<path d="M128.305 940.185C337.69 766.349 637.991 342.391 164.12 37.2413" stroke="#262120"/>
<path d="M151.236 935.84C353.722 754.016 637.359 318.733 152.012 32.1869" stroke="#262120"/>
<path d="M174.166 931.495C369.45 741.957 635.995 296.002 139.902 28.4913" stroke="#262120"/>
<path d="M197.096 927.15C384.884 730.182 633.936 274.228 127.844 26.1544" stroke="#262120"/>
<path d="M220.027 922.805C400.036 718.704 631.221 253.436 115.89 25.1723" stroke="#262120"/>
<path d="M242.957 918.46C414.917 707.533 627.887 233.65 104.093 25.5403" stroke="#262120"/>
<path d="M265.887 914.115C429.539 696.679 623.974 214.894 92.504 27.2517" stroke="#262120"/>
<path d="M288.818 909.771C443.915 686.151 619.523 197.19 81.1762 30.2966" stroke="#262120"/>
<path d="M311.748 905.426C458.058 675.961 614.574 180.558 70.1607 34.6647" stroke="#262120"/>
<path d="M334.678 901.081C471.98 666.116 609.169 165.016 59.5086 40.3424" stroke="#262120"/>
<path d="M357.609 896.736C485.696 656.623 603.352 150.581 49.2704 47.3142" stroke="#262120"/>
<path d="M380.539 892.391C499.22 647.492 597.165 137.269 39.496 55.5643" stroke="#262120"/>
<path d="M403.469 888.046C512.565 638.73 590.652 125.092 30.2345 65.0727" stroke="#262120"/>
<path d="M426.4 883.701C525.746 630.342 583.858 114.063 21.5345 75.8194" stroke="#262120"/>
<path d="M449.33 879.357C538.777 622.336 576.827 104.192 13.4434 87.781" stroke="#262120"/>
<path d="M472.26 875.012C551.674 614.716 569.604 95.4858 6.00787 100.933" stroke="#262120"/>
<path d="M495.191 870.667C564.452 607.488 562.235 87.9528 -0.726346 115.25" stroke="#262120"/>
<path d="M518.121 866.322C577.125 600.655 554.764 81.5968 -6.71498 130.702" stroke="#262120"/>
<path d="M541.051 861.977C589.71 594.222 547.239 76.4211 -11.9135 147.261" stroke="#262120"/>
<path d="M563.981 857.632C602.221 588.192 539.705 72.4272 -16.2809 164.895" stroke="#262120"/>
<path d="M586.912 853.287C614.675 582.567 532.207 69.614 -19.7752 183.571" stroke="#262120"/>
<path d="M609.842 848.943C627.087 577.349 524.791 67.9799 -22.3572 203.254" stroke="#262120"/>
<path d="M632.772 844.598C639.474 572.54 517.503 67.5203 -23.9882 223.909" stroke="#262120"/>
<path d="M655.703 840.253C651.85 568.139 510.389 68.2294 -24.6314 245.497" stroke="#262120"/>
<path d="M678.633 835.908C664.232 564.149 503.493 70.0998 -24.2513 267.98" stroke="#262120"/>
<path d="M701.563 831.563C676.635 560.566 496.86 73.1218 -22.8142 291.316" stroke="#262120"/>
<path d="M724.494 827.218C689.076 557.392 490.536 77.2849 -20.2872 315.466" stroke="#262120"/>
<path d="M747.424 822.874C701.571 554.624 484.563 82.576 -16.6402 340.385" stroke="#262120"/>
<path d="M770.354 818.529C714.134 552.258 478.986 88.9802 -11.844 366.03" stroke="#262120"/>
<path d="M793.284 814.184C726.782 550.294 473.846 96.4819 -5.87141 392.355" stroke="#262120"/>
<path d="M816.215 809.839C739.53 548.726 469.188 105.063 1.30372 419.315" stroke="#262120"/>
<path d="M839.145 805.494C752.393 547.551 465.051 114.705 9.7041 446.863" stroke="#262120"/>
<path d="M862.076 801.149C765.387 546.764 461.477 125.385 19.3521 474.95" stroke="#262120"/>
<path d="M885.006 796.804C778.526 546.36 458.506 137.082 30.2678 503.527" stroke="#262120"/>
<path d="M907.936 792.459C791.825 546.332 456.176 149.77 42.4689 532.545" stroke="#262120"/>
<path d="M930.867 788.115C805.299 546.674 454.526 163.426 55.9718 561.955" stroke="#262120"/>
<path d="M953.797 783.77C818.962 547.38 453.592 178.021 70.7906 591.704" stroke="#262120"/>
<path d="M976.727 779.425C832.827 548.441 453.41 193.528 86.9373 621.743" stroke="#262120"/>
<path d="M999.658 775.08C846.91 549.85 454.015 209.915 104.423 652.018" stroke="#262120"/>
<path d="M1022.59 770.735C861.221 551.597 455.441 227.153 123.254 682.479" stroke="#262120"/>
<path d="M1045.52 766.39C875.776 553.674 457.721 245.208 143.439 713.073" stroke="#262120"/>
<path d="M1068.45 762.045C890.586 556.071 460.884 264.047 164.981 743.746" stroke="#262120"/>
<path d="M1091.38 757.701C905.663 558.778 464.961 283.636 187.881 774.448" stroke="#262120"/>
<path d="M1114.31 753.356C921.02 561.784 469.981 303.937 212.14 805.124" stroke="#262120"/>
<path d="M1137.24 749.011C936.667 565.078 475.969 324.914 237.756 835.722" stroke="#262120"/>
<path d="M1160.17 744.666C952.616 568.648 482.952 346.529 264.725 866.189" stroke="#262120"/>
<path d="M1183.1 740.321C968.878 572.484 490.954 368.743 293.041 896.474" stroke="#262120"/>
<path d="M1206.03 735.976C985.461 576.572 499.997 391.516 322.695 926.525" stroke="#262120"/>
<path d="M1228.96 731.631C1002.38 580.9 510.102 414.806 353.679 956.288" stroke="#262120"/>
<path d="M1251.89 727.287C1019.63 585.454 521.287 438.574 385.978 985.714" stroke="#262120"/>
<path d="M1274.82 722.942C1037.24 590.222 533.572 462.776 419.58 1014.75" stroke="#262120"/>
<path d="M1297.75 718.597C1055.2 595.189 546.972 487.369 454.469 1043.35" stroke="#262120"/>
<path d="M1320.68 714.252C1073.53 600.342 561.501 512.31 490.626 1071.46" stroke="#262120"/>
<path d="M1343.61 709.907C1092.23 605.666 577.172 537.554 528.031 1099.03" stroke="#262120"/>
<path d="M1366.54 705.562C1111.3 611.148 593.996 563.058 566.663 1126.02" stroke="#262120"/>
<path d="M1389.47 701.218C1130.77 616.771 611.981 588.776 606.498 1152.37" stroke="#262120"/>
<path d="M1412.4 696.873C1150.62 622.521 631.136 614.663 647.511 1178.05" stroke="#262120"/>
<path d="M1435.33 692.528C1170.86 628.383 651.466 640.674 689.674 1203" stroke="#262120"/>
<path d="M1458.26 688.183C1191.5 634.341 672.976 666.763 732.959 1227.18" stroke="#262120"/>
<path d="M1481.19 683.838C1212.55 640.381 695.666 692.884 777.335 1250.56" stroke="#262120"/>
<path d="M1504.12 679.493C1233.99 646.486 719.538 718.992 822.77 1273.08" stroke="#262120"/>
<path d="M1527.05 675.148C1255.85 652.64 744.59 745.039 869.229 1294.71" stroke="#262120"/>
<path d="M1549.99 670.804C1278.11 658.828 770.819 770.983 916.678 1315.4" stroke="#262120"/>
<path d="M1572.92 666.459C1300.78 665.034 798.219 796.775 965.079 1335.13" stroke="#262120"/>
<path d="M1595.85 662.114C1323.86 671.243 826.785 822.371 1014.39 1353.85" stroke="#262120"/>
<path d="M1618.78 657.769C1347.35 677.438 856.508 847.727 1064.58 1371.53" stroke="#262120"/>
<path d="M1641.71 653.424C1371.24 683.603 887.377 872.796 1115.61 1388.14" stroke="#262120"/>
<path d="M1664.64 649.079C1395.55 689.722 919.381 897.536 1167.42 1403.64" stroke="#262120"/>
<path d="M1687.57 644.734C1420.26 695.781 952.506 921.901 1219.99 1418.01" stroke="#262120"/>
<path d="M1710.5 640.39C1445.37 701.763 986.736 945.85 1273.25 1431.22" stroke="#262120"/>
<path d="M1733.43 636.045C1470.88 707.652 1022.06 969.34 1327.18 1443.23" stroke="#262120"/>
<path d="M1756.36 631.7C1496.78 713.434 1058.44 992.328 1381.71 1454.03" stroke="#262120"/>
<path d="M1779.29 627.355C1523.08 719.093 1095.88 1014.77 1436.81 1463.59" stroke="#262120"/>
<path d="M1802.22 623.01C1549.76 724.614 1134.35 1036.64 1492.42 1471.9" stroke="#262120"/>
</g>
</svg>
