<svg width="64" height="64" viewBox="0 0 64 64" fill="none" xmlns="http://www.w3.org/2000/svg">
<path d="M31.5937 2.00391C31.0937 2.00782 30.5937 2.03126 30.0898 2.06251C23.3203 2.46876 17.1601 5.14844 12.3398 9.33985C6.44921 14.4414 2.57031 21.8086 2.06249 30.0898C1.53906 38.4688 4.41015 46.4492 10.1406 52.5391C15.7891 58.5508 23.75 62 32 62C34.3789 62 36.7383 61.7188 39.0312 61.1719C42.8984 60.2383 45.8594 57.3906 46.9492 53.5313C48.0508 49.6211 47 45.582 44.1289 42.7188L42.9492 41.5391C41.2109 39.7891 41.25 37.5781 41.8711 36.0899C42.4805 34.5899 44.0195 33 46.4883 33H54.1992C56.3984 33 58.4297 32 59.7695 30.25C60.7187 29.0117 61.2109 27.5313 61.2109 26.0117C61.2109 25.3984 61.1289 24.7891 60.9687 24.1797C59.3789 18.2578 56.0391 13.168 51.6289 9.36719C46.1836 4.66407 39.1016 1.91797 31.5937 2.00391ZM31.9492 4.00001C38.2383 4.00001 44.1797 6.1211 48.9805 9.75782C49.4023 10.0781 49.8086 10.4102 50.1992 10.7617C54.3789 14.3203 57.5391 19.1094 59.0391 24.6992C59.4492 26.2109 59.1289 27.7891 58.1797 29.0391C57.2187 30.2773 55.7695 31 54.1992 31H46.4883C43.6016 31 41.1211 32.6602 40.0195 35.3203C38.9101 37.9922 39.5 40.9102 41.5391 42.9492L42.7187 44.1289C45.0625 46.4805 45.918 49.7891 45.0195 52.9883C44.1289 56.1406 41.7187 58.4688 38.5625 59.2305C36.4297 59.7422 34.2187 60 32 60C24.1914 60 16.9414 56.8594 11.5898 51.1719C6.24999 45.4805 3.57031 38.0391 4.06249 30.2109C4.53906 22.4297 8.19921 15.5195 13.7695 10.75C18.2383 6.89844 23.9492 4.44922 30.2109 4.06251C30.7891 4.01954 31.3711 4.00001 31.9492 4.00001ZM32 7.00001C29.2422 7.00001 27 9.24219 27 12C27 14.7578 29.2422 17 32 17C34.7578 17 37 14.7578 37 12C37 9.24219 34.7578 7.00001 32 7.00001ZM32 9.00001C33.6523 9.00001 35 10.3477 35 12C35 13.6523 33.6523 15 32 15C30.3476 15 29 13.6523 29 12C29 10.3477 30.3476 9.00001 32 9.00001ZM19 12C16.2422 12 14 14.2422 14 17C14 19.7578 16.2422 22 19 22C21.7578 22 24 19.7578 24 17C24 14.2422 21.7578 12 19 12ZM45 12C42.2422 12 40 14.2422 40 17C40 19.7578 42.2422 22 45 22C47.7578 22 50 19.7578 50 17C50 14.2422 47.7578 12 45 12ZM19 14C20.6523 14 22 15.3477 22 17C22 18.6523 20.6523 20 19 20C17.3476 20 16 18.6523 16 17C16 15.3477 17.3476 14 19 14ZM45 14C46.6523 14 48 15.3477 48 17C48 18.6523 46.6523 20 45 20C43.3476 20 42 18.6523 42 17C42 15.3477 43.3476 14 45 14ZM32 21C31.4961 21 30.9922 21.0352 30.5 21.1016C29.9531 21.1758 29.5703 21.6836 29.6445 22.2305C29.7226 22.7734 30.2226 23.1563 30.7734 23.082C33.0117 22.7773 35.3437 23.3359 37.2031 24.6563C37.3828 24.7813 37.582 24.8438 37.7812 24.8438C38.0976 24.8438 38.4062 24.6953 38.5976 24.4219C38.918 23.9688 38.8125 23.3438 38.3633 23.0273C36.4961 21.6992 34.2969 21 32 21ZM25.8945 22.3359C25.7617 22.3516 25.6289 22.3984 25.5 22.4727C24.9805 22.7734 24.8594 23.3594 25.1367 23.8398L26.1367 25.5703C26.3203 25.8945 26.6562 26.0742 27 26.0742C27.1328 26.0938 27.3281 26.0391 27.5 25.9375C28.0195 25.6367 28.1406 25.0508 27.8633 24.5703L26.8633 22.8398C26.6601 22.4805 26.2891 22.2852 25.8945 22.3359ZM12 25C9.24218 25 6.99999 27.2422 6.99999 30C6.99999 32.7578 9.24218 35 12 35C14.7578 35 17 32.7578 17 30C17 27.2422 14.7578 25 12 25ZM40.3828 25.793C40.2539 25.8086 40.1289 25.8555 40.0117 25.9297C39.5391 26.2188 39.3906 26.832 39.6797 27.3047C40.0117 27.8477 40.2851 28.4258 40.4961 29.0195C40.6406 29.4336 41.0273 29.6914 41.4375 29.6914C41.5469 29.6914 41.6601 29.6719 41.7695 29.6367C42.2891 29.4531 42.5664 28.8828 42.3828 28.3594C42.1289 27.6289 41.7891 26.9219 41.3867 26.2617C41.168 25.9063 40.7695 25.7344 40.3828 25.793ZM22.4687 26C22.0859 25.9453 21.6992 26.1094 21.4726 26.5C21.1719 27.0195 21.3594 27.5898 21.8398 27.8633L23.5703 28.8633C23.7305 28.957 23.875 29.043 24.0547 29.0313C24.4141 29.0078 24.7383 28.8477 24.9375 28.5C25.2383 27.9805 25.0508 27.4102 24.5703 27.1367L22.8398 26.1367C22.7187 26.0664 22.5937 26.0195 22.4687 26ZM12 27C13.6523 27 15 28.3477 15 30C15 31.6523 13.6523 33 12 33C10.3476 33 8.99999 31.6523 8.99999 30C8.99999 28.3477 10.3476 27 12 27ZM21 31C20.4453 31 20 31.3984 20 32C20 32.6016 20.4453 33 21 33H23C23.5547 33 24 32.6016 24 32C24 31.3984 23.5547 31 23 31H21ZM23.9453 35C23.8164 35.0195 23.6914 35.0664 23.5742 35.1367L21.8398 36.1367C21.3594 36.4102 21.1758 36.9805 21.4726 37.5C21.6758 37.8477 21.9961 38.0078 22.3594 38.0313C22.5351 38.043 22.6797 37.957 22.8398 37.8633L24.5742 36.8633C25.0508 36.5899 25.2383 36.0195 24.9375 35.5C24.7109 35.1094 24.3281 34.9453 23.9453 35ZM27.1055 37.9258C26.7109 37.875 26.3398 38.0703 26.1367 38.4258L25.1367 40.1602C24.8594 40.6406 24.9805 41.2266 25.5 41.5274C25.6719 41.625 25.8672 41.6836 26 41.6602C26.3437 41.6602 26.6797 41.4805 26.8633 41.1602L27.8633 39.4258C28.1406 38.9492 28.0195 38.3633 27.5 38.0625C27.3711 37.9883 27.2383 37.9414 27.1055 37.9258ZM16 39C13.2422 39 11 41.2422 11 44C11 46.7578 13.2422 49 16 49C18.7578 49 21 46.7578 21 44C21 41.2422 18.7578 39 16 39ZM16 41C17.6523 41 19 42.3477 19 44C19 45.6524 17.6523 47 16 47C14.3476 47 13 45.6524 13 44C13 42.3477 14.3476 41 16 41ZM34 44C30.6914 44 28 46.6914 28 50C28 53.3086 30.6914 56 34 56C37.3086 56 40 53.3086 40 50C40 46.6914 37.3086 44 34 44ZM34 46C36.207 46 38 47.793 38 50C38 52.207 36.207 54 34 54C31.793 54 30 52.207 30 50C30 47.793 31.793 46 34 46Z" fill="#F15A29"/>
</svg>
