<svg width="50" height="50" viewBox="0 0 50 50" fill="none" xmlns="http://www.w3.org/2000/svg">
<g opacity="0.7">
<path d="M9.99757 1.13534C9.84498 1.15365 9.68629 1.19027 9.53065 1.25131C8.90504 1.48324 8.59376 2.03256 8.59376 2.65512V5.93881L7.57752 4.92257C7.26624 4.61129 6.79627 4.61129 6.48499 4.92257C6.17371 5.23385 6.17371 5.70382 6.48499 6.0151L7.50123 7.03134H4.21754C3.59498 7.03134 3.04566 7.42196 2.81373 7.96823C2.57874 8.51449 2.65504 9.21945 3.12501 9.68942L7.34254 13.9069C5.6244 17.0319 4.68751 20.6239 4.68751 24.2188C4.68751 31.2501 8.20313 37.5794 13.5162 41.4063L11.0931 44.922C10.8582 45.3126 10.9375 45.7826 11.2518 46.0175C11.4075 46.0938 11.5631 46.1701 11.7188 46.1701C11.9537 46.1701 12.1887 46.0938 12.3444 45.8589L14.8438 42.3432C18.0481 44.2964 21.7957 45.3889 25.7813 45.3889C29.7669 45.3889 33.5144 44.2964 36.7188 42.3432L39.2182 45.8589C39.3738 46.0938 39.6088 46.1701 39.8438 46.1701C39.9994 46.1701 40.155 46.0938 40.3107 46.0175C40.7013 45.7826 40.7807 45.3126 40.4694 44.922L38.0463 41.4063C43.3594 37.5794 46.875 31.2501 46.875 24.2188C46.875 12.5794 37.4207 3.12509 25.7813 3.12509C22.1863 3.12509 18.5944 4.06198 15.4694 5.78012L11.2518 1.56259C10.8978 1.21164 10.4584 1.08041 9.99757 1.13534ZM10.1563 2.65512L15.1581 7.65695C15.4694 7.96823 15.625 8.35885 15.625 8.74948V12.8907L10.1563 7.42196V2.65512ZM25.7813 4.68759C36.5631 4.68759 45.3125 13.437 45.3125 24.2188C45.3125 35.0007 36.5631 43.7501 25.7813 43.7501C14.9994 43.7501 6.25001 35.0007 6.25001 24.2188C6.25001 21.0145 7.03126 17.8925 8.51746 15.0788C9.06373 15.4694 9.68629 15.6251 10.3119 15.6251H16.0156L25.1556 24.7651C25.3113 24.9207 25.5463 25.0001 25.705 25.0001C25.8606 25.0001 26.0925 24.9207 26.2482 24.7651C26.5625 24.4538 26.5625 23.9839 26.2482 23.6726L17.1875 14.5295V8.82882C17.1875 8.20321 16.9525 7.5776 16.6412 7.03134C19.455 5.46884 22.5769 4.68759 25.7813 4.68759ZM25.7813 7.81259C23.2025 7.81259 20.7031 8.4382 18.3594 9.53073C17.9688 9.68637 17.8131 10.1563 18.0451 10.547C18.2037 10.9376 18.6737 11.0932 19.0643 10.8613C21.1731 9.84506 23.3612 9.29879 25.705 9.29879C33.9081 9.29879 40.5487 15.9394 40.5487 24.1425C40.5487 32.3457 33.9081 38.9863 25.705 38.9863C17.5018 38.9863 10.8612 32.3457 10.8612 24.1425C10.8612 23.3613 10.9375 22.6563 11.0138 21.8751C11.0931 21.4845 10.7819 21.0175 10.3912 21.0175C10.0006 20.9382 9.53065 21.2495 9.53065 21.6401C9.37501 22.4214 9.37501 23.2819 9.37501 24.0632C9.37501 33.1269 16.7175 40.4694 25.7813 40.4694C34.845 40.4694 42.1875 33.1269 42.1875 24.0632C42.1875 14.9995 34.845 7.81259 25.7813 7.81259ZM4.21754 8.59384H9.06068L14.5294 14.0626H10.3912C10.0006 14.0626 9.60999 13.9069 9.29871 13.5957L4.21754 8.59384ZM25.7813 13.2813C24.0631 13.2813 22.2656 13.672 20.7031 14.5295C20.3125 14.7645 20.1569 15.2345 20.3888 15.5488C20.6238 15.9394 21.0938 16.0951 21.4081 15.8601C22.7356 15.1582 24.2188 14.7675 25.705 14.7675C30.9387 14.8438 35.1563 19.0614 35.1563 24.2188C35.1563 27.7345 33.2031 30.9358 30.0781 32.4983C29.6875 32.7332 29.5319 33.2032 29.7638 33.5175C29.9225 33.7495 30.1575 33.9082 30.4688 33.9082C30.6244 33.9082 30.7037 33.9082 30.8594 33.8288C34.4544 32.0313 36.7188 28.2807 36.7188 24.2188C36.7188 18.2038 31.7963 13.2813 25.7813 13.2813ZM11.8866 16.5009C11.5814 16.4948 11.2885 16.6413 11.1725 16.8733C10.9375 17.4226 10.6262 17.9688 10.4706 18.5151C10.2356 18.9057 10.4706 19.2964 10.8612 19.455C10.9375 19.455 11.0169 19.5313 11.1725 19.5313C11.4838 19.5313 11.7951 19.3757 11.8744 19.0644C12.03 18.5944 12.265 18.0482 12.5 17.5782C12.6556 17.1876 12.5 16.7176 12.1857 16.562C12.088 16.5223 11.9873 16.504 11.8866 16.5009ZM17.041 18.332C16.7328 18.2954 16.4276 18.4571 16.2506 18.7501C16.095 19.1407 16.2506 19.6107 16.5619 19.8457L17.8925 20.6269C18.0481 20.7032 18.1244 20.7032 18.2831 20.7032C18.515 20.7032 18.8294 20.5476 18.985 20.3126C19.22 19.922 19.0643 19.452 18.6737 19.217L17.3431 18.4358C17.2455 18.3778 17.1448 18.3442 17.041 18.332ZM25.7813 18.7501C25.47 18.7501 25.1556 18.7501 24.8444 18.8264C24.4537 18.9057 24.1394 19.2964 24.2188 19.7663C24.2981 20.1569 24.6857 20.4682 25.1556 20.3889C25.3906 20.3889 25.6256 20.3126 25.7813 20.3126C27.9694 20.3126 29.6875 22.0307 29.6875 24.2188C29.6875 26.4069 27.9694 28.1251 25.7813 28.1251C23.5931 28.1251 21.875 26.4069 21.875 24.2188C21.875 23.9839 21.875 23.7489 21.9513 23.5932C22.0306 23.2026 21.7194 22.7357 21.3287 22.6563C20.8588 22.577 20.4681 22.8913 20.3888 23.2819C20.3125 23.5932 20.3125 23.9076 20.3125 24.2188C20.3125 27.2645 22.7356 29.6876 25.7813 29.6876C28.8269 29.6876 31.25 27.2645 31.25 24.2188C31.25 21.1732 28.8269 18.7501 25.7813 18.7501ZM15.625 23.4376C15.155 23.4376 14.8438 23.7489 14.8438 24.2188C14.8438 24.6888 15.155 25.0001 15.625 25.0001H17.1875C17.6575 25.0001 17.9688 24.6888 17.9688 24.2188C17.9688 23.7489 17.6575 23.4376 17.1875 23.4376H15.625ZM18.2373 27.7406C18.1397 27.7497 18.0481 27.7741 17.9688 27.8108L16.6412 28.592C16.2506 28.827 16.1713 29.297 16.33 29.6876C16.4856 29.9226 16.7206 30.0782 17.0319 30.0782C17.1875 30.0782 17.2669 30.0782 17.4225 30.0019L18.75 29.2207C19.1406 28.9857 19.22 28.5157 19.0643 28.1251C18.8873 27.8321 18.5364 27.7162 18.2373 27.7406ZM21.5729 30.832C21.2647 30.7954 20.9564 30.9571 20.7794 31.2501L19.9982 32.5776C19.8425 32.9682 19.9219 33.4382 20.3125 33.6701C20.4681 33.7495 20.5475 33.7495 20.7031 33.7495C20.9381 33.7495 21.2494 33.5938 21.4081 33.3589L22.1893 32.0313C22.4213 31.6407 22.2656 31.1707 21.875 30.9358C21.7774 30.8778 21.6766 30.8442 21.5729 30.832ZM25.7813 32.0313C25.3113 32.0313 25 32.3426 25 32.8126V34.3751C25 34.8451 25.3113 35.1563 25.7813 35.1563C26.2512 35.1563 26.5625 34.8451 26.5625 34.3751V32.8126C26.5625 32.3426 26.2512 32.0313 25.7813 32.0313Z" fill="#F15A29"/>
</g>
</svg>
