<svg width="50" height="50" viewBox="0 0 50 50" fill="none" xmlns="http://www.w3.org/2000/svg">
<g opacity="0.7">
<path d="M25 2.34375C19.4001 2.34375 14.8438 6.90011 14.8438 12.5C14.8438 16.7157 17.428 20.3363 21.0938 21.8704C21.0937 21.8719 21.0937 21.8735 21.0938 21.875V43.1534C21.0936 43.3171 21.1448 43.4766 21.2402 43.6096L23.349 46.5485C23.4213 46.6494 23.5165 46.7317 23.6269 46.7885C23.7373 46.8452 23.8596 46.8749 23.9838 46.875H25.7248C25.8407 46.8751 25.9552 46.8494 26.06 46.7998C26.1648 46.7502 26.2572 46.6779 26.3306 46.5881L28.7308 43.6478C28.8445 43.5081 28.9065 43.3335 28.9062 43.1534V39.8438C28.9062 39.6366 28.8239 39.4379 28.6774 39.2914L27.6672 38.2812L28.6774 37.2711C28.8239 37.1246 28.9062 36.9259 28.9062 36.7188V35.1562C28.9062 34.9491 28.8239 34.7504 28.6774 34.6039L27.6672 33.5938L28.6774 32.5836C28.8239 32.4371 28.9062 32.2384 28.9062 32.0312V31.25C28.9062 31.0428 28.8239 30.8441 28.6774 30.6976L27.6672 29.6875L28.6774 28.6774C28.8239 28.5309 28.9062 28.3322 28.9062 28.125V21.875C28.9063 21.8735 28.9063 21.8719 28.9062 21.8704C32.572 20.3363 35.1562 16.7157 35.1562 12.5C35.1562 6.90011 30.5999 2.34375 25 2.34375ZM25 3.90625C29.7555 3.90625 33.5938 7.74455 33.5938 12.5C33.5938 17.2555 29.7555 21.0938 25 21.0938C20.2445 21.0938 16.4062 17.2555 16.4062 12.5C16.4062 7.74455 20.2445 3.90625 25 3.90625ZM25 7.03125C24.0234 7.03125 23.1916 7.42559 22.6578 8.02612C22.124 8.62666 21.875 9.3967 21.875 10.1562C21.875 10.9158 22.124 11.6858 22.6578 12.2864C23.1916 12.8869 24.0234 13.2812 25 13.2812C25.9766 13.2812 26.8084 12.8869 27.3422 12.2864C27.876 11.6858 28.125 10.9158 28.125 10.1562C28.125 9.3967 27.876 8.62666 27.3422 8.02612C26.8084 7.42559 25.9766 7.03125 25 7.03125ZM25 8.59375C25.5859 8.59375 25.926 8.78535 26.1734 9.06372C26.4208 9.34209 26.5625 9.74392 26.5625 10.1562C26.5625 10.5686 26.4208 10.9704 26.1734 11.2488C25.926 11.5272 25.5859 11.7188 25 11.7188C24.4141 11.7188 24.074 11.5272 23.8266 11.2488C23.5792 10.9704 23.4375 10.5686 23.4375 10.1562C23.4375 9.74392 23.5792 9.34209 23.8266 9.06372C24.074 8.78535 24.4141 8.59375 25 8.59375ZM8.98438 17.1875C8.13802 17.1875 7.40382 17.533 6.93512 18.0603C6.46642 18.5876 6.25 19.26 6.25 19.9219C6.25 20.5838 6.46642 21.2562 6.93512 21.7834C7.40382 22.3107 8.13802 22.6562 8.98438 22.6562C9.2065 22.6562 9.3924 22.5757 9.59625 22.5311L14.2563 27.858C14.3295 27.9418 14.4198 28.0089 14.5212 28.055C14.6225 28.101 14.7325 28.1249 14.8438 28.125H18.75C18.8535 28.1265 18.9563 28.1073 19.0524 28.0687C19.1484 28.0301 19.2359 27.9728 19.3096 27.9001C19.3833 27.8274 19.4419 27.7408 19.4818 27.6453C19.5218 27.5498 19.5424 27.4473 19.5424 27.3438C19.5424 27.2402 19.5218 27.1377 19.4818 27.0422C19.4419 26.9467 19.3833 26.8601 19.3096 26.7874C19.2359 26.7147 19.1484 26.6574 19.0524 26.6188C18.9563 26.5802 18.8535 26.561 18.75 26.5625H15.1978L11.0229 21.7911C11.0258 21.7879 11.0308 21.7866 11.0336 21.7834C11.5023 21.2562 11.7188 20.5838 11.7188 19.9219C11.7188 19.26 11.5023 18.5876 11.0336 18.0603C10.5649 17.533 9.83073 17.1875 8.98438 17.1875ZM41.0156 17.1875C40.1693 17.1875 39.4351 17.533 38.9664 18.0603C38.4977 18.5876 38.2812 19.26 38.2812 19.9219C38.2812 20.5838 38.4977 21.2562 38.9664 21.7834C38.9692 21.7867 38.9742 21.7879 38.9771 21.7911L34.8022 26.5625H31.25C31.1465 26.561 31.0437 26.5802 30.9476 26.6188C30.8516 26.6574 30.7641 26.7147 30.6904 26.7874C30.6167 26.8601 30.5581 26.9467 30.5182 27.0422C30.4782 27.1377 30.4576 27.2402 30.4576 27.3438C30.4576 27.4473 30.4782 27.5498 30.5182 27.6453C30.5581 27.7408 30.6167 27.8274 30.6904 27.9001C30.7641 27.9728 30.8516 28.0301 30.9476 28.0687C31.0437 28.1073 31.1465 28.1265 31.25 28.125H35.1562C35.2675 28.1249 35.3775 28.101 35.4788 28.055C35.5802 28.0089 35.6705 27.9418 35.7437 27.858L40.4037 22.5311C40.6076 22.5757 40.7935 22.6562 41.0156 22.6562C41.862 22.6562 42.5962 22.3107 43.0649 21.7834C43.5336 21.2562 43.75 20.5838 43.75 19.9219C43.75 19.26 43.5336 18.5876 43.0649 18.0603C42.5962 17.533 41.862 17.1875 41.0156 17.1875ZM8.98438 18.75C9.4401 18.75 9.68247 18.8928 9.86481 19.0979C10.0471 19.303 10.1562 19.6072 10.1562 19.9219C10.1562 20.2365 10.0471 20.5407 9.86481 20.7458C9.68247 20.951 9.4401 21.0938 8.98438 21.0938C8.52865 21.0938 8.28628 20.951 8.10394 20.7458C7.9216 20.5407 7.8125 20.2365 7.8125 19.9219C7.8125 19.6072 7.9216 19.303 8.10394 19.0979C8.28628 18.8928 8.52865 18.75 8.98438 18.75ZM41.0156 18.75C41.4714 18.75 41.7137 18.8928 41.8961 19.0979C42.0784 19.303 42.1875 19.6072 42.1875 19.9219C42.1875 20.2365 42.0784 20.5407 41.8961 20.7458C41.7137 20.951 41.4714 21.0938 41.0156 21.0938C40.5599 21.0938 40.3175 20.951 40.1352 20.7458C39.9529 20.5407 39.8438 20.2365 39.8438 19.9219C39.8438 19.6072 39.9529 19.303 40.1352 19.0979C40.3175 18.8928 40.5599 18.75 41.0156 18.75ZM22.6562 22.3572C23.4119 22.5372 24.1901 22.6562 25 22.6562C25.8099 22.6562 26.5881 22.5372 27.3438 22.3572V27.8015L26.0101 29.1351C25.8637 29.2817 25.7814 29.4803 25.7814 29.6875C25.7814 29.8947 25.8637 30.0933 26.0101 30.2399L27.3438 31.5735V31.7078L26.0101 33.0414C25.8637 33.1879 25.7814 33.3866 25.7814 33.5938C25.7814 33.8009 25.8637 33.9996 26.0101 34.1461L27.3438 35.4797V36.3953L26.0101 37.7289C25.8637 37.8754 25.7814 38.0741 25.7814 38.2812C25.7814 38.4884 25.8637 38.6871 26.0101 38.8336L27.3438 40.1672V42.8757L25.354 45.3125H24.3851L22.6562 42.9031V22.3572ZM5.85938 28.9062C5.01302 28.9062 4.27882 29.2518 3.81012 29.7791C3.34142 30.3063 3.125 30.9787 3.125 31.6406C3.125 32.3025 3.34142 32.9749 3.81012 33.5022C4.27882 34.0295 5.01302 34.375 5.85938 34.375C6.70573 34.375 7.43993 34.0295 7.90863 33.5022C8.08224 33.3069 8.05563 33.0398 8.16193 32.8125H18.75C18.8535 32.814 18.9563 32.7948 19.0524 32.7562C19.1484 32.7176 19.2359 32.6603 19.3096 32.5876C19.3833 32.5149 19.4419 32.4283 19.4818 32.3328C19.5218 32.2373 19.5424 32.1348 19.5424 32.0312C19.5424 31.9277 19.5218 31.8252 19.4818 31.7297C19.4419 31.6342 19.3833 31.5476 19.3096 31.4749C19.2359 31.4022 19.1484 31.3449 19.0524 31.3063C18.9563 31.2677 18.8535 31.2485 18.75 31.25H8.45032C8.37719 30.7288 8.27901 30.1957 7.90863 29.7791C7.43993 29.2518 6.70573 28.9062 5.85938 28.9062ZM44.1406 28.9062C43.2943 28.9062 42.5601 29.2518 42.0914 29.7791C41.6227 30.3063 41.4062 30.9787 41.4062 31.6406C41.4062 32.3025 41.6227 32.9749 42.0914 33.5022C42.5601 34.0295 43.2943 34.375 44.1406 34.375C44.987 34.375 45.7212 34.0295 46.1899 33.5022C46.6586 32.9749 46.875 32.3025 46.875 31.6406C46.875 30.9787 46.6586 30.3063 46.1899 29.7791C45.7212 29.2518 44.987 28.9062 44.1406 28.9062ZM5.85938 30.4688C6.3151 30.4688 6.55747 30.6115 6.73981 30.8167C6.92215 31.0218 7.03125 31.326 7.03125 31.6406C7.03125 31.9553 6.92215 32.2595 6.73981 32.4646C6.55747 32.6697 6.3151 32.8125 5.85938 32.8125C5.40365 32.8125 5.16128 32.6697 4.97894 32.4646C4.7966 32.2595 4.6875 31.9553 4.6875 31.6406C4.6875 31.326 4.7966 31.0218 4.97894 30.8167C5.16128 30.6115 5.40365 30.4688 5.85938 30.4688ZM31.2515 30.4688C30.8195 30.4688 30.4688 30.818 30.4688 31.25V32.8125C30.4688 33.2445 30.8195 33.5938 31.2515 33.5938C31.6836 33.5938 32.0328 33.2445 32.0328 32.8125V31.25C32.0336 30.8188 31.6843 30.4688 31.2515 30.4688ZM35.1456 30.4688C34.7128 30.4688 34.3628 30.818 34.3628 31.25V32.8125C34.3628 33.2445 34.7135 33.5938 35.1456 33.5938C35.5776 33.5938 35.9268 33.2445 35.9268 32.8125V31.25C35.9268 30.8188 35.5776 30.4688 35.1456 30.4688ZM39.0564 30.4688C38.6236 30.4688 38.2751 30.818 38.2751 31.25V32.8125C38.2751 33.2445 38.6244 33.5938 39.0564 33.5938C39.4884 33.5938 39.8392 33.2445 39.8392 32.8125V31.25C39.8392 30.8188 39.4892 30.4688 39.0564 30.4688ZM44.1406 30.4688C44.5964 30.4688 44.8387 30.6115 45.0211 30.8167C45.2034 31.0218 45.3125 31.326 45.3125 31.6406C45.3125 31.9553 45.2034 32.2595 45.0211 32.4646C44.8387 32.6697 44.5964 32.8125 44.1406 32.8125C43.6849 32.8125 43.4425 32.6697 43.2602 32.4646C43.0779 32.2595 42.9688 31.9553 42.9688 31.6406C42.9688 31.326 43.0779 31.0218 43.2602 30.8167C43.4425 30.6115 43.6849 30.4688 44.1406 30.4688ZM14.8438 35.9375C14.7325 35.9376 14.6225 35.9615 14.5212 36.0075C14.4198 36.0536 14.3295 36.1208 14.2563 36.2045L9.59625 41.5314C9.3924 41.4868 9.2065 41.4062 8.98438 41.4062C8.13802 41.4062 7.40382 41.7518 6.93512 42.2791C6.46642 42.8063 6.25 43.4787 6.25 44.1406C6.25 44.8025 6.46642 45.4749 6.93512 46.0022C7.40382 46.5295 8.13802 46.875 8.98438 46.875C9.83073 46.875 10.5649 46.5295 11.0336 46.0022C11.5023 45.4749 11.7188 44.8025 11.7188 44.1406C11.7188 43.4787 11.5023 42.8063 11.0336 42.2791C11.0308 42.2758 11.0258 42.2746 11.0229 42.2714L15.1978 37.5H18.75C18.8535 37.5015 18.9563 37.4823 19.0524 37.4437C19.1484 37.4051 19.2359 37.3478 19.3096 37.2751C19.3833 37.2024 19.4419 37.1158 19.4818 37.0203C19.5218 36.9248 19.5424 36.8223 19.5424 36.7188C19.5424 36.6152 19.5218 36.5127 19.4818 36.4172C19.4419 36.3217 19.3833 36.2351 19.3096 36.1624C19.2359 36.0897 19.1484 36.0324 19.0524 35.9938C18.9563 35.9552 18.8535 35.936 18.75 35.9375H14.8438ZM31.25 35.9375C31.1465 35.936 31.0437 35.9552 30.9476 35.9938C30.8516 36.0324 30.7641 36.0897 30.6904 36.1624C30.6167 36.2351 30.5581 36.3217 30.5182 36.4172C30.4782 36.5127 30.4576 36.6152 30.4576 36.7188C30.4576 36.8223 30.4782 36.9248 30.5182 37.0203C30.5581 37.1158 30.6167 37.2024 30.6904 37.2751C30.7641 37.3478 30.8516 37.4051 30.9476 37.4437C31.0437 37.4823 31.1465 37.5015 31.25 37.5H34.8022L38.9771 42.2714C38.9742 42.2746 38.9692 42.2758 38.9664 42.2791C38.4977 42.8063 38.2812 43.4787 38.2812 44.1406C38.2812 44.8025 38.4977 45.4749 38.9664 46.0022C39.4351 46.5295 40.1693 46.875 41.0156 46.875C41.862 46.875 42.5962 46.5295 43.0649 46.0022C43.5336 45.4749 43.75 44.8025 43.75 44.1406C43.75 43.4787 43.5336 42.8063 43.0649 42.2791C42.5962 41.7518 41.862 41.4062 41.0156 41.4062C40.7935 41.4062 40.6076 41.4868 40.4037 41.5314L35.7437 36.2045C35.6705 36.1208 35.5802 36.0536 35.4788 36.0075C35.3775 35.9615 35.2675 35.9376 35.1562 35.9375H31.25ZM8.98438 42.9688C9.4401 42.9688 9.68247 43.1115 9.86481 43.3167C10.0471 43.5218 10.1562 43.826 10.1562 44.1406C10.1562 44.4553 10.0471 44.7595 9.86481 44.9646C9.68247 45.1697 9.4401 45.3125 8.98438 45.3125C8.52865 45.3125 8.28628 45.1697 8.10394 44.9646C7.9216 44.7595 7.8125 44.4553 7.8125 44.1406C7.8125 43.826 7.9216 43.5218 8.10394 43.3167C8.28628 43.1115 8.52865 42.9688 8.98438 42.9688ZM41.0156 42.9688C41.4714 42.9688 41.7137 43.1115 41.8961 43.3167C42.0784 43.5218 42.1875 43.826 42.1875 44.1406C42.1875 44.4553 42.0784 44.7595 41.8961 44.9646C41.7137 45.1697 41.4714 45.3125 41.0156 45.3125C40.5599 45.3125 40.3175 45.1697 40.1352 44.9646C39.9529 44.7595 39.8438 44.4553 39.8438 44.1406C39.8438 43.826 39.9529 43.5218 40.1352 43.3167C40.3175 43.1115 40.5599 42.9688 41.0156 42.9688Z" fill="#F15A29"/>
</g>
</svg>
