<svg width="1511" height="682" viewBox="0 0 1511 682" fill="none" xmlns="http://www.w3.org/2000/svg">
<mask id="mask0_88_325" style="mask-type:alpha" maskUnits="userSpaceOnUse" x="0" y="-2" width="1511" height="684">
<path d="M0 -2H1511V682H0V-2Z" fill="#1A1513"/>
</mask>
<g mask="url(#mask0_88_325)">
<path d="M1000.86 12.2858C804.185 -200.989 558.98 7.8882 460.961 138.986C248.987 513.643 619.59 524.949 816.438 338.237C1013.29 151.525 1019.43 634.418 1350.92 531.504C1735.31 412.171 1246.69 278.88 1000.86 12.2858Z" fill="#1A1513" stroke="#3E3633"/>
<path opacity="0.95875" d="M992.85 24.0134C804.768 -195.75 552.117 5.5057 449.302 133.604C223.471 501.864 592.824 525.012 796.377 344.399C999.93 163.787 987.593 647.353 1322.29 554.919C1710.39 447.739 1227.95 298.718 992.85 24.0134Z" fill="#1A1513" stroke="#3E3633"/>
<path opacity="0.9175" d="M984.414 35.4969C805.148 -190.488 545.361 2.90163 437.875 127.845C198.462 489.259 566.115 524.22 776.124 349.927C986.134 175.634 955.335 659.284 1292.83 577.444C1684.17 482.546 1208.5 317.978 984.414 35.4969Z" fill="#1A1513" stroke="#3E3633"/>
<path opacity="0.87625" d="M975.557 46.7224C805.327 -185.208 538.718 0.0793203 426.693 121.714C173.989 475.843 539.495 522.575 755.705 354.814C971.915 187.053 922.692 670.197 1262.57 599.05C1656.68 516.551 1188.34 336.636 975.557 46.7224Z" fill="#1A1513" stroke="#3E3633"/>
<path opacity="0.835" d="M966.29 57.6763C805.304 -179.917 532.199 -2.95785 415.769 115.221C150.084 461.632 512.997 520.079 735.144 359.054C957.291 198.029 889.705 680.079 1231.56 619.711C1627.95 549.713 1167.52 354.669 966.29 57.6763Z" fill="#1A1513" stroke="#3E3633"/>
<path opacity="0.79375" d="M956.625 68.3453C805.078 -174.622 525.809 -6.20613 405.119 108.373C126.775 446.645 486.652 516.734 714.466 362.642C942.28 208.549 856.412 688.918 1199.82 639.403C1598.01 581.989 1146.06 372.055 956.625 68.3453Z" fill="#1A1513" stroke="#3E3633"/>
<path opacity="0.7525" d="M946.574 78.7162C804.65 -169.329 519.559 -9.66156 394.753 101.178C104.09 430.898 460.494 512.545 693.696 365.573C926.899 218.601 822.854 696.702 1167.4 658.101C1566.91 613.342 1123.98 388.773 946.574 78.7162Z" fill="#1A1513" stroke="#3E3633"/>
<path opacity="0.71125" d="M936.148 88.7764C804.021 -164.044 513.454 -13.32 384.686 93.6448C82.0567 414.412 434.553 507.517 672.861 367.844C911.168 228.171 789.073 703.423 1134.33 675.783C1534.67 643.733 1101.31 404.802 936.148 88.7764Z" fill="#1A1513" stroke="#3E3633"/>
<path opacity="0.67" d="M925.36 98.5138C803.192 -158.774 507.502 -17.1769 374.928 85.7829C60.7027 397.206 408.862 501.655 651.984 369.452C895.106 237.249 755.11 709.073 1100.66 692.426C1501.35 673.125 1078.07 420.124 925.36 98.5138Z" fill="#1A1513" stroke="#3E3633"/>
<path opacity="0.62875" d="M914.224 107.917C802.162 -153.525 501.711 -21.227 365.493 77.6024C40.0536 379.302 383.451 494.969 631.092 370.396C878.733 245.823 721.005 713.644 1066.43 708.012C1466.97 701.482 1054.3 434.72 914.224 107.917Z" fill="#1A1513" stroke="#3E3633"/>
<path opacity="0.5875" d="M902.753 116.973C800.934 -148.305 496.087 -25.4674 356.391 69.1111C20.1347 360.72 358.352 487.463 610.21 370.672C862.067 253.882 686.801 717.129 1031.68 722.519C1431.59 728.769 1030.03 448.57 902.753 116.973Z" fill="#1A1513" stroke="#3E3633"/>
<path opacity="0.54625" d="M890.961 125.671C799.509 -143.119 490.639 -29.8912 347.635 60.3212C0.970208 341.484 333.596 479.148 589.363 370.283C845.13 261.417 652.539 719.527 996.453 735.931C1395.24 754.953 1005.28 461.658 890.961 125.671Z" fill="#1A1513" stroke="#3E3633"/>
<path opacity="0.505" d="M878.863 134.003C797.889 -137.972 485.371 -34.4928 339.233 51.2436C-17.4165 321.617 309.212 470.036 568.577 369.228C827.943 268.419 618.261 720.834 960.79 748.233C1357.97 780.004 980.079 473.971 878.863 134.003Z" fill="#1A1513" stroke="#3E3633"/>
<path opacity="0.46375" d="M866.472 141.957C796.076 -132.871 480.291 -39.2656 331.197 41.8904C-35.0032 301.146 285.23 460.138 547.878 367.51C810.526 274.881 584.009 721.049 924.734 759.41C1319.82 803.89 954.467 485.492 866.472 141.957Z" fill="#1A1513" stroke="#3E3633"/>
<path opacity="0.4225" d="M853.805 149.522C794.072 -127.825 475.404 -44.2083 323.537 32.2685C-51.7683 280.09 261.68 449.462 527.29 365.126C792.9 280.791 549.824 720.168 888.331 769.443C1280.84 826.58 928.471 496.205 853.805 149.522Z" fill="#1A1513" stroke="#3E3633"/>
<path opacity="0.38125" d="M840.877 156.692C791.88 -122.835 470.717 -49.3088 316.261 22.3954C-67.6915 258.481 238.59 438.026 506.838 362.086C775.086 286.146 515.748 718.198 851.624 778.328C1241.09 848.051 902.123 506.101 840.877 156.692Z" fill="#1A1513" stroke="#3E3633"/>
<path opacity="0.34" d="M827.703 163.453C789.501 -117.914 466.236 -54.567 309.379 12.2774C-82.7533 236.339 215.988 425.839 486.548 358.387C757.108 290.936 481.822 715.135 814.659 786.046C1200.6 868.271 875.455 515.163 827.703 163.453Z" fill="#1A1513" stroke="#3E3633"/>
<path opacity="0.29875" d="M814.299 169.803C786.939 -113.062 461.966 -59.9719 302.899 1.93118C-96.9352 213.696 193.901 412.92 466.444 354.039C738.986 295.157 448.088 710.987 777.48 792.594C1159.42 887.22 848.498 523.384 814.299 169.803Z" fill="#1A1513" stroke="#3E3633"/>
<path opacity="0.2575" d="M800.682 175.73C784.198 -108.287 457.911 -65.5185 296.828 -8.63211C-110.22 190.579 172.358 399.283 446.55 349.044C720.743 298.805 414.588 705.759 740.133 797.961C1117.61 904.874 821.288 530.752 800.682 175.73Z" fill="#1A1513" stroke="#3E3633"/>
<path opacity="0.21625" d="M786.869 181.23C781.28 -103.594 454.078 -71.1994 291.175 -19.399C-122.592 167.014 151.383 384.945 426.892 343.41C702.4 301.874 381.361 699.457 702.663 802.142C1075.22 921.21 793.855 537.26 786.869 181.23Z" fill="#1A1513" stroke="#3E3633"/>
<path opacity="0.175" d="M772.876 186.293C778.189 -98.9911 450.47 -77.0094 285.946 -30.3581C-134.036 143.031 131.003 369.923 407.492 337.141C683.981 304.359 348.449 692.086 665.115 805.13C1032.3 936.209 766.234 542.897 772.876 186.293Z" fill="#1A1513" stroke="#3E3633"/>
<path opacity="0.13375" d="M758.72 190.914C774.929 -94.4815 447.092 -82.9398 281.148 -41.4945C-144.537 118.659 111.242 354.236 388.374 330.248C665.507 306.259 315.89 683.659 627.537 806.923C988.903 949.852 738.458 547.659 758.72 190.914Z" fill="#1A1513" stroke="#3E3633"/>
<path opacity="0.0925" d="M744.419 195.089C771.504 -90.0716 443.949 -88.9839 276.786 -52.795C-154.083 93.9274 92.1242 337.902 369.562 322.737C647.001 307.572 283.726 674.183 589.972 807.517C945.076 962.124 710.562 551.539 744.419 195.089Z" fill="#1A1513" stroke="#3E3633"/>
<path opacity="0.05125" d="M729.989 198.81C767.918 -85.7667 441.044 -95.1342 272.865 -64.2459C-162.663 68.867 73.6733 320.942 351.079 314.619C628.486 308.295 251.995 663.672 552.468 806.914C900.878 973.009 682.579 554.532 729.989 198.81Z" fill="#1A1513" stroke="#3E3633"/>
<path opacity="0.01" d="M715.45 202.076C764.175 -81.5717 438.38 -101.383 269.392 -75.833C-170.266 43.5081 55.9116 303.377 332.948 305.902C609.984 308.428 220.737 652.137 515.07 805.112C856.36 982.493 654.543 556.635 715.45 202.076Z" fill="#1A1513" stroke="#3E3633"/>
</g>
</svg>
