<svg width="157" height="31" viewBox="0 0 157 31" fill="none" xmlns="http://www.w3.org/2000/svg">
<g clip-path="url(#clip0_88_13)">
<path d="M7.60487 1.46775H0.250737H0.242371L0.250737 20.6735L7.60487 15.7791V8.64536H15.8808V8.63993L22.9281 4.00781C20.946 2.6847 18.6855 1.83572 16.3218 1.52667L15.8571 1.47401V1.47465L15.8228 1.4713L15.7235 1.46775H7.60487Z" fill="url(#paint0_linear_88_13)"/>
<path d="M25.7784 6.9447C24.4355 8.28076 23.11 9.63416 21.7439 10.9481C21.4139 11.2653 20.7209 11.5501 21.2121 12.3778C23.9197 16.9384 20.6776 23.041 14.984 23.1429C13.7741 23.1647 12.5636 23.1588 11.3531 23.1636C11.0942 23.1649 10.87 23.1784 10.6588 23.3999C9.94829 24.1444 9.20596 24.8582 8.47617 25.5841C6.90639 27.145 5.33703 28.7059 3.64053 30.3935H4.34126C7.91283 30.3933 11.4842 30.3889 15.0558 30.396C15.9528 30.3976 16.8399 30.3011 17.7137 30.1273C28.2744 28.0264 32.9536 15.5353 26.3859 7.00906C26.265 6.85214 26.1808 6.75936 26.0787 6.75936C25.9984 6.75936 25.9072 6.8164 25.7784 6.9447Z" fill="url(#paint1_linear_88_13)"/>
<path d="M0.250737 20.6735L0.242371 30.5L28.5617 2.0595L0.250737 20.6735Z" fill="url(#paint2_linear_88_13)"/>
<path d="M46.7563 13.6908C46.7563 13.6367 46.7159 13.5967 46.6621 13.5967H40.7304C40.6767 13.5967 40.6363 13.6367 40.6363 13.6908V19.6315C40.6363 19.6852 40.6767 19.7255 40.7304 19.7255H46.6621C46.7159 19.7255 46.7563 19.6852 46.7563 19.6315V13.6908ZM46.6621 11.8225C47.6978 11.8225 48.5451 12.6559 48.5451 13.6908V19.6315C48.5451 20.6663 47.6978 21.4998 46.6621 21.4998H38.8608V11.8225H46.6621Z" fill="#F15A29"/>
<path d="M58.9806 13.5969H51.8655V15.7744H57.5952V17.5482H51.8655V19.7257H58.9806V21.4999H50.0766V11.8227H58.9806V13.5969Z" fill="#F15A29"/>
<path d="M62.2205 13.5969C62.1664 13.5969 62.126 13.6369 62.126 13.691V19.6316C62.126 19.6853 62.1664 19.7257 62.2205 19.7257H70.0082V21.4999H62.2205C61.1845 21.4999 60.3509 20.6665 60.3509 19.6316V13.691C60.3509 12.6561 61.1845 11.8227 62.2205 11.8227H70.0082V13.5969H62.2205Z" fill="#F15A29"/>
<path d="M79.1926 16.406C79.2467 16.406 79.2867 16.3657 79.2867 16.312V13.7043C79.2867 13.651 79.2467 13.6102 79.1926 13.6102H73.2609C73.2075 13.6102 73.1668 13.651 73.1668 13.7043V16.312C73.1668 16.3657 73.2075 16.406 73.2609 16.406H79.1926ZM81.0756 16.312C81.0756 17.3335 80.2282 18.1803 79.1926 18.1803H78.6679L81.0756 21.0427V21.4999H79.1385L76.3414 18.1803H73.2075H73.1668V21.4999H71.3912V11.836H79.1926C80.2282 11.836 81.0756 12.6828 81.0756 13.7043V16.312Z" fill="#F15A29"/>
<path d="M92.7083 11.8227L88.2294 17.8844V21.4999H86.4539V17.8844C85.0418 15.9625 83.3741 13.7446 81.975 11.8227H84.0866L87.3417 15.9354L90.5834 11.8227H92.7083Z" fill="#F15A29"/>
<path d="M101.234 13.7044C101.234 13.6507 101.194 13.6103 101.14 13.6103H95.2083C95.1542 13.6103 95.1139 13.6507 95.1139 13.7044V16.312C95.1139 16.3653 95.1542 16.4061 95.2083 16.4061H101.14C101.194 16.4061 101.234 16.3653 101.234 16.312V13.7044ZM101.14 11.8361C102.176 11.8361 103.023 12.6828 103.023 13.7044V16.312C103.023 17.3336 102.176 18.1803 101.14 18.1803L95.1542 18.1937L95.1139 18.1803V21.5H93.3387V11.8361H101.14Z" fill="#F15A29"/>
<path d="M113.176 11.8227V13.5969H109.235V21.4999H107.446V13.5969H103.492V11.8227H113.176Z" fill="#F15A29"/>
<path d="M121.971 19.7256C122.011 19.7256 122.052 19.6856 122.052 19.6316V13.6909C122.052 13.6372 122.011 13.5969 121.971 13.5969H116.026C115.972 13.5969 115.932 13.6372 115.932 13.6909V19.6316C115.932 19.6856 115.972 19.7256 116.026 19.7256H121.971ZM121.971 11.8226C122.993 11.8226 123.84 12.656 123.84 13.6909V19.6316C123.84 20.6664 122.993 21.4999 121.971 21.4999H116.026C114.99 21.4999 114.156 20.6664 114.156 19.6316V13.6909C114.156 12.656 114.99 11.8226 116.026 11.8226H121.971Z" fill="#F15A29"/>
<path d="M135.002 14.4437H133.213V13.691C133.213 13.637 133.172 13.597 133.119 13.597H127.187C127.134 13.597 127.093 13.637 127.093 13.691V19.6317C127.093 19.6854 127.134 19.7258 127.187 19.7258H133.119C133.172 19.7258 133.213 19.6854 133.213 19.6317V17.8038H131.021V16.0295H135.002V19.6317C135.002 20.6666 134.155 21.5 133.119 21.5H127.187C126.151 21.5 125.318 20.6666 125.318 19.6317V13.691C125.318 12.6562 126.151 11.8227 127.187 11.8227H133.119C134.155 11.8227 135.002 12.6562 135.002 13.691V14.4437Z" fill="#F15A29"/>
<path d="M145.411 13.5969H138.296V15.7744H144.025V17.5482H138.296V19.7257H145.411V21.4999H136.507V11.8227H145.411V13.5969Z" fill="#F15A29"/>
<path d="M154.676 11.8227H156.464V21.4999H154.528L148.556 14.4033V21.4999H146.78V11.8227H148.717L154.676 18.9193V11.8227Z" fill="#F15A29"/>
</g>
<defs>
<linearGradient id="paint0_linear_88_13" x1="0.242325" y1="11.0706" x2="22.9283" y2="11.0706" gradientUnits="userSpaceOnUse">
<stop stop-color="#FBB617"/>
<stop offset="0.049141" stop-color="#F47B32"/>
<stop offset="0.103688" stop-color="#F47B32"/>
<stop offset="0.377809" stop-color="#EE2664"/>
<stop offset="0.570175" stop-color="#C93092"/>
<stop offset="0.762541" stop-color="#7A53A2"/>
<stop offset="1" stop-color="#7A53A2"/>
</linearGradient>
<linearGradient id="paint1_linear_88_13" x1="3.64059" y1="18.5775" x2="29.4122" y2="18.5775" gradientUnits="userSpaceOnUse">
<stop stop-color="#FBB617"/>
<stop offset="0.049141" stop-color="#F47B32"/>
<stop offset="0.103688" stop-color="#F47B32"/>
<stop offset="0.377809" stop-color="#EE2664"/>
<stop offset="0.570175" stop-color="#C93092"/>
<stop offset="0.762541" stop-color="#7A53A2"/>
<stop offset="1" stop-color="#7A53A2"/>
</linearGradient>
<linearGradient id="paint2_linear_88_13" x1="0.242325" y1="16.2798" x2="28.5617" y2="16.2798" gradientUnits="userSpaceOnUse">
<stop stop-color="#88D3E1"/>
<stop offset="1" stop-color="#6A5EA9"/>
</linearGradient>
<clipPath id="clip0_88_13">
<rect width="157" height="30" fill="white" transform="translate(0 0.5)"/>
</clipPath>
</defs>
</svg>
