<svg width="50" height="50" viewBox="0 0 50 50" fill="none" xmlns="http://www.w3.org/2000/svg">
<g opacity="0.7">
<path d="M25 1.55957C24.4842 1.55957 23.9685 1.73047 23.5351 2.07532L22.4426 2.95117C18.811 5.85645 14.4378 7.55627 9.79613 7.8645L6.9702 8.05371C5.68541 8.13916 4.70579 9.25305 4.78514 10.5348L5.32225 19.5619C5.93565 28.0671 9.82054 35.8339 16.2536 41.4308L23.4619 47.696C23.9014 48.0775 24.4507 48.2667 25 48.2667C25.5493 48.2667 26.0986 48.0775 26.5381 47.696L33.7463 41.4308C40.1794 35.8339 44.0613 28.0671 44.6777 19.5527L45.2148 10.5378C45.2942 9.25305 44.3146 8.13916 43.0298 8.05371L40.2038 7.8645C35.5621 7.55627 31.1889 5.85645 27.5574 2.95117L26.4648 2.07532C26.0315 1.73047 25.5157 1.55957 25 1.55957ZM25 3.12512C25.1709 3.12512 25.3418 3.18311 25.4883 3.29602L26.5808 4.17188C30.4626 7.27856 35.1379 9.09436 40.1001 9.42395L42.926 9.61316C43.3533 9.64063 43.6828 10.0129 43.6554 10.4432L43.1152 19.449C42.7063 25.1436 40.7501 30.4841 37.5 35.0068V34.7169C37.5 34.2866 37.1521 33.9357 36.7187 33.9357C36.2854 33.9357 35.9375 34.2866 35.9375 34.7169V36.2794C35.9375 36.4717 36.0138 36.6365 36.1267 36.7738C35.0921 38.0067 33.9599 39.1725 32.7209 40.2498L25.5127 46.5181C25.2228 46.7714 24.7772 46.7714 24.4873 46.5181L17.279 40.2498C16.04 39.1755 14.9078 38.0067 13.8733 36.7738C13.9862 36.6365 14.0625 36.4686 14.0625 36.2794V34.7169C14.0625 34.2836 13.7146 33.9357 13.2812 33.9357C12.8479 33.9357 12.5 34.2836 12.5 34.7169V35.0038C9.24986 30.4841 7.29368 25.1436 6.88475 19.4581L6.34459 10.4402C6.31712 10.0129 6.64671 9.64063 7.07396 9.61316L9.89989 9.42395C14.862 9.09131 19.5373 7.27551 23.4192 4.16882L24.5117 3.29602C24.6582 3.18311 24.826 3.12512 25 3.12512ZM25 5.35901C24.6887 5.35901 24.3713 5.45361 24.1058 5.63977L22.0947 7.04663C18.7073 9.41785 14.7339 10.8156 10.6079 11.0933L10.1044 11.1268C9.671 11.1573 9.34752 11.5297 9.37498 11.96C9.4055 12.3719 9.7473 12.6863 10.1562 12.6863C10.1715 12.6863 10.1898 12.6863 10.2081 12.6863L10.7147 12.6497C15.1245 12.3567 19.3695 10.8613 22.9919 8.32532L25 6.92151L27.008 8.32532C29.1748 9.84509 31.5613 10.9895 34.1003 11.7311C34.5154 11.8531 34.9487 11.6151 35.0708 11.2001C35.1898 10.785 34.9518 10.3547 34.5367 10.2327C32.1655 9.53992 29.9316 8.4657 27.9053 7.04663L25.8972 5.64282C25.6286 5.45361 25.3143 5.35901 25 5.35901ZM37.6068 10.901C37.1734 10.8339 36.7828 11.136 36.7187 11.5632C36.6577 11.9905 36.9507 12.3872 37.3779 12.4482C38.0096 12.5398 38.6505 12.6069 39.2822 12.6497L39.7461 12.6832C39.7613 12.6832 39.7796 12.6832 39.798 12.6832C40.2038 12.6832 40.5487 12.3689 40.5762 11.9539C40.6067 11.5236 40.2832 11.1512 39.8529 11.1207L39.389 11.0933C38.7939 11.0505 38.1958 10.9895 37.6068 10.901ZM25.0549 14.0626C24.704 14.0596 24.35 14.0931 23.999 14.1694C22.2229 14.5387 20.7825 15.9822 20.4132 17.7614C20.0531 19.5039 20.6817 21.277 22.0367 22.3665L20.6024 27.7223C20.4773 28.1923 20.5749 28.6897 20.874 29.0773C21.17 29.4648 21.6217 29.6876 22.11 29.6876H27.89C28.3783 29.6876 28.8299 29.4648 29.126 29.0773C29.425 28.6897 29.5257 28.1923 29.3976 27.7223L27.951 22.3817C29.0527 21.4875 29.6875 20.1631 29.6875 18.7501C29.6875 17.3311 29.0558 16.0066 27.9541 15.1124C27.1271 14.441 26.1078 14.0779 25.0549 14.0626ZM25.0091 15.6251C25.7232 15.6251 26.4038 15.8632 26.9684 16.324C27.7038 16.9191 28.125 17.8041 28.125 18.7501C28.125 19.6901 27.7038 20.569 26.9653 21.1671C26.4953 21.5486 26.297 22.1772 26.4526 22.7693L27.89 28.1251H22.11L23.5473 22.7693C23.706 22.1772 23.5046 21.5486 23.0347 21.1702C22.1069 20.4194 21.701 19.2628 21.9452 18.0787C22.1893 16.9008 23.1415 15.9425 24.3164 15.6984C24.5483 15.6495 24.7803 15.6251 25.0091 15.6251ZM17.1875 33.9357C16.7541 33.9357 16.4062 34.2836 16.4062 34.7169V36.2794C16.4062 36.7128 16.7541 37.0607 17.1875 37.0607C17.6208 37.0607 17.9687 36.7128 17.9687 36.2794V34.7169C17.9687 34.2866 17.6208 33.9357 17.1875 33.9357ZM21.0937 33.9357C20.6604 33.9357 20.3125 34.2836 20.3125 34.7169V36.2794C20.3125 36.7128 20.6604 37.0607 21.0937 37.0607C21.5271 37.0607 21.875 36.7128 21.875 36.2794V34.7169C21.875 34.2866 21.5271 33.9357 21.0937 33.9357ZM25 33.9357C24.5666 33.9357 24.2187 34.2836 24.2187 34.7169V36.2794C24.2187 36.7128 24.5666 37.0607 25 37.0607C25.4333 37.0607 25.7812 36.7128 25.7812 36.2794V34.7169C25.7812 34.2866 25.4333 33.9357 25 33.9357ZM28.9062 33.9357C28.4729 33.9357 28.125 34.2836 28.125 34.7169V36.2794C28.125 36.7128 28.4729 37.0607 28.9062 37.0607C29.3396 37.0607 29.6875 36.7128 29.6875 36.2794V34.7169C29.6875 34.2866 29.3396 33.9357 28.9062 33.9357ZM32.8125 33.9357C32.3791 33.9357 32.0312 34.2836 32.0312 34.7169V36.2794C32.0312 36.7128 32.3791 37.0607 32.8125 37.0607C33.2458 37.0607 33.5937 36.7128 33.5937 36.2794V34.7169C33.5937 34.2866 33.2458 33.9357 32.8125 33.9357Z" fill="#F15A29"/>
</g>
</svg>
