<svg width="50" height="50" viewBox="0 0 50 50" fill="none" xmlns="http://www.w3.org/2000/svg">
<g opacity="0.7">
<path d="M20.3125 4.6875C8.92334 4.6875 0 8.46252 0 13.2812V36.7188C0 41.5405 8.92334 45.3125 20.3125 45.3125C20.874 45.3125 21.4294 45.3064 21.9757 45.2881C21.9055 45.462 21.875 45.6482 21.875 45.8374V48.4375C21.875 49.2981 22.5769 50 23.4375 50H27.0294C27.2186 50 27.3987 49.9298 27.5391 49.8138L28.3112 49.1425C28.4607 49.0173 28.5553 48.8434 28.5767 48.6572L28.7018 47.7966L29.9683 47.6257C30.5145 47.5464 30.9448 47.1161 31.0242 46.5698L31.1951 45.2972L32.7271 45.0562C32.9773 45.0165 33.2184 44.8914 33.3984 44.7113L36.9537 41.156L41.4307 43.8446C42.514 44.5007 43.9514 44.1498 44.6167 43.0786L49.4629 35.3271C49.704 34.9457 49.8199 34.5154 49.8199 34.0851C49.8199 33.4778 49.585 32.8827 49.1333 32.431L40.625 23.9227V13.2812C40.625 8.46252 31.7017 4.6875 20.3125 4.6875ZM20.3125 6.25C31.5277 6.25 39.0625 9.88464 39.0625 13.2812C39.0625 16.6779 31.5277 20.3125 20.3125 20.3125C9.09729 20.3125 1.5625 16.6779 1.5625 13.2812C1.5625 9.88464 9.09729 6.25 20.3125 6.25ZM21.1914 7.82166C20.7642 7.82166 20.4163 8.1604 20.4102 8.58459C20.401 9.01794 20.7458 9.375 21.1761 9.38416C21.9147 9.39636 22.6562 9.42688 23.3887 9.47571C23.4039 9.47876 23.4222 9.47876 23.4406 9.47876C23.8464 9.47876 24.1913 9.16138 24.2188 8.74939C24.2493 8.31909 23.9227 7.94678 23.4924 7.91931C22.7356 7.86743 21.9696 7.83386 21.2036 7.82166H21.1914ZM17.6788 7.88574C15.213 8.02307 12.8632 8.35571 10.8887 8.8501C10.4706 8.95691 10.2173 9.38416 10.3241 9.80225C10.4126 10.1562 10.73 10.3912 11.0809 10.3912C11.145 10.3912 11.2091 10.3851 11.2701 10.3668C13.1531 9.89685 15.3992 9.57642 17.7643 9.44519C18.1976 9.42078 18.5272 9.05151 18.5028 8.62122C18.4784 8.19092 18.0939 7.85523 17.6788 7.88574ZM1.5625 16.6473C4.599 19.7479 11.7615 21.875 20.3125 21.875C28.8635 21.875 36.026 19.7479 39.0625 16.6473V22.8424C38.4613 22.6868 37.8113 22.7722 37.2559 23.1232L31.604 26.651C28.3173 27.6123 24.4232 28.125 20.3125 28.125C9.09729 28.125 1.5625 24.4904 1.5625 21.0938V16.6473ZM38.501 24.3286C38.7024 24.3286 38.8977 24.4049 39.0533 24.5544L39.0625 24.5605L40.625 26.123L48.0316 33.5327C48.288 33.7891 48.3368 34.1888 48.1415 34.5001L43.2983 42.2485C43.0695 42.6086 42.5934 42.7185 42.2363 42.5018L37.7563 39.8193C37.1399 39.447 36.3525 39.5477 35.8429 40.0543L32.373 43.5242L30.7037 43.7897C30.1727 43.8751 29.7516 44.3054 29.6783 44.8364L29.5074 46.109L28.244 46.2799C27.6947 46.3531 27.2675 46.7804 27.1881 47.3206L27.0721 48.1476L26.7426 48.4375H23.4375V45.8374L24.118 45.1569L25.8514 43.4143L32.5317 36.734C33.0383 36.2274 33.139 35.4462 32.7637 34.8267L30.0781 30.3497C29.8676 29.9927 29.9774 29.5166 30.3345 29.2877L32.2479 28.0975C32.254 28.0945 32.2601 28.0914 32.2662 28.0884C32.3975 28.0487 32.5043 27.9724 32.5928 27.8809L38.0859 24.4446C38.208 24.3652 38.3575 24.3286 38.501 24.3286ZM1.5625 24.4598C4.599 27.5604 11.7615 29.6875 20.3125 29.6875C23.23 29.6875 26.0468 29.4342 28.6377 28.9551C28.3173 29.6417 28.3264 30.4688 28.7415 31.1554L31.4301 35.6323L23.4131 43.6493C22.3907 43.7195 21.3593 43.75 20.3125 43.75C9.09424 43.75 1.5625 40.1184 1.5625 36.7188V32.254C4.0741 34.8358 9.43604 36.7737 16.2933 37.3383C16.3147 37.3383 16.3391 37.3413 16.3574 37.3413C16.7633 37.3413 17.1021 37.03 17.1387 36.6211C17.1722 36.1938 16.8518 35.8154 16.4215 35.7788C7.94983 35.083 1.5625 32.1289 1.5625 28.9062V24.4598ZM38.0493 26.8921C37.7899 26.9073 37.5336 26.9836 37.3016 27.1301L35.791 28.0731C35.434 28.2959 35.1868 28.6438 35.0952 29.0558C35.0037 29.4678 35.0769 29.8889 35.3027 30.2429L37.8754 34.2407C37.9974 34.4299 38.1531 34.5886 38.3423 34.7107L42.3431 37.2803C42.5964 37.4451 42.8864 37.5275 43.1854 37.5275C43.2983 37.5275 43.4143 37.5153 43.5303 37.4908C43.9392 37.3993 44.2902 37.149 44.5099 36.792L45.4559 35.2844C45.8435 34.6619 45.752 33.8684 45.2362 33.3527L39.2334 27.3499C38.9099 27.0264 38.4766 26.8707 38.0493 26.8921ZM38.1287 28.4546L44.1315 34.4574L43.1885 35.965L39.1876 33.3954L36.6211 29.3976L38.1287 28.4546ZM28.125 33.67C27.6917 33.67 27.3438 34.021 27.3438 34.4513V36.0138C27.3438 36.4471 27.6917 36.795 28.125 36.795C28.5583 36.795 28.9062 36.4471 28.9062 36.0138V34.4513C28.9062 34.021 28.5583 33.67 28.125 33.67ZM24.2188 34.2194C23.7854 34.2194 23.4375 34.5703 23.4375 35.0006V36.5631C23.4375 36.9934 23.7854 37.3444 24.2188 37.3444C24.6521 37.3444 25 36.9934 25 36.5631V35.0006C25 34.5703 24.6521 34.2194 24.2188 34.2194ZM20.3125 34.375C19.8792 34.375 19.5312 34.726 19.5312 35.1562V36.7188C19.5312 37.149 19.8792 37.5 20.3125 37.5C20.7458 37.5 21.0938 37.149 21.0938 36.7188V35.1562C21.0938 34.726 20.7458 34.375 20.3125 34.375Z" fill="#F15A29"/>
</g>
</svg>
