<svg width="64" height="64" viewBox="0 0 64 64" fill="none" xmlns="http://www.w3.org/2000/svg">
<path d="M21 0C17.1406 0 14 3.14062 14 7V23.5781L8.28906 29.2891C7.89844 29.6797 7.89844 30.3203 8.28906 30.7109L14 36.4219V57C14 60.8594 17.1406 64 21 64H43C46.8594 64 50 60.8594 50 57V36.4219L55.7109 30.7109C56.1016 30.3203 56.1016 29.6797 55.7109 29.2891L50 23.5781V7C50 3.14062 46.8594 0 43 0H21ZM21 2H43C45.7617 2 48 4.23828 48 7V8H16V7C16 4.23828 18.2383 2 21 2ZM27 4C26.4492 4 26 4.44531 26 5C26 5.55469 26.4492 6 27 6H29C29.5508 6 30 5.55469 30 5C30 4.44531 29.5508 4 29 4H27ZM33 4C32.4492 4 32 4.44531 32 5C32 5.55469 32.4492 6 33 6H37C37.5508 6 38 5.55469 38 5C38 4.44531 37.5508 4 37 4H33ZM16 10H48V21.5781L42.7109 16.2891C42.3203 15.8984 41.6797 15.8984 41.2891 16.2891L38.2891 19.2891C37.8984 19.6797 37.8984 20.3203 38.2891 20.7109L47.5898 30L38.2891 39.2891C37.8984 39.6797 37.8984 40.3203 38.2891 40.7109L41.2891 43.7109C41.4883 43.9023 41.7383 44 42 44C42.2617 44 42.5117 43.9023 42.7109 43.7109L48 38.4219V52H16V38.4219L21.2891 43.7109C21.4883 43.9023 21.7383 44 22 44C22.2617 44 22.5117 43.9023 22.7109 43.7109L25.7109 40.7109C26.1016 40.3203 26.1016 39.6797 25.7109 39.2891L16.4102 30L25.7109 20.7109C26.1016 20.3203 26.1016 19.6797 25.7109 19.2891L22.7109 16.2891C22.3203 15.8984 21.6797 15.8984 21.2891 16.2891L16 21.5781V10ZM22 18.4102L23.5898 20L16 27.5781L14.2891 29.2891C14.0977 29.4805 14 29.7383 14 30C14 30.2617 14.0977 30.5195 14.2891 30.7109L16 32.4219L23.5898 40L22 41.5898L10.4102 30L22 18.4102ZM42 18.4102L53.5898 30L42 41.5898L40.4102 40L48 32.4219L49.7109 30.7109C49.9023 30.5195 50 30.2617 50 30C50 29.7383 49.9023 29.4805 49.7109 29.2891L48 27.5781L40.4102 20L42 18.4102ZM19 46C18.4492 46 18 46.4453 18 47V49C18 49.5547 18.4492 50 19 50C19.5508 50 20 49.5547 20 49V47C20 46.4453 19.5508 46 19 46ZM24 46C23.4492 46 23 46.4453 23 47V49C23 49.5547 23.4492 50 24 50C24.5508 50 25 49.5547 25 49V47C25 46.4453 24.5508 46 24 46ZM29 46C28.4492 46 28 46.4453 28 47V49C28 49.5547 28.4492 50 29 50C29.5508 50 30 49.5547 30 49V47C30 46.4453 29.5508 46 29 46ZM35 46C34.4492 46 34 46.4453 34 47V49C34 49.5547 34.4492 50 35 50C35.5508 50 36 49.5547 36 49V47C36 46.4453 35.5508 46 35 46ZM40 46C39.4492 46 39 46.4453 39 47V49C39 49.5547 39.4492 50 40 50C40.5508 50 41 49.5547 41 49V47C41 46.4453 40.5508 46 40 46ZM45 46C44.4492 46 44 46.4453 44 47V49C44 49.5547 44.4492 50 45 50C45.5508 50 46 49.5547 46 49V47C46 46.4453 45.5508 46 45 46ZM16 54H48V57C48 59.7617 45.7617 62 43 62H21C18.2383 62 16 59.7617 16 57V54ZM32 56C30.8945 56 30 56.8945 30 58C30 59.1055 30.8945 60 32 60C33.1055 60 34 59.1055 34 58C34 56.8945 33.1055 56 32 56Z" fill="#F15A29"/>
</svg>
