<svg width="64" height="64" viewBox="0 0 64 64" fill="none" xmlns="http://www.w3.org/2000/svg">
<path d="M3 6C1.34766 6 0 7.34766 0 9V45C0 46.6523 1.34766 48 3 48H26V52H23.6562C22.3203 52 21.0664 52.5195 20.1211 53.4648L17.293 56.293C17.0078 56.5781 16.9219 57.0078 17.0781 57.3828C17.2305 57.7539 17.5977 58 18 58H46C46.4023 58 46.7695 57.7539 46.9219 57.3828C47.0781 57.0078 46.9922 56.5781 46.707 56.293L43.8789 53.4648C42.9336 52.5195 41.6797 52 40.3438 52H38V48H61C62.6523 48 64 46.6523 64 45V9C64 7.34766 62.6523 6 61 6H3ZM3 8H61C61.5508 8 62 8.44922 62 9V45C62 45.5508 61.5508 46 61 46H3C2.44922 46 2 45.5508 2 45V9C2 8.44922 2.44922 8 3 8ZM9 12C7.34766 12 6 13.3477 6 15V35C6 36.6523 7.34766 38 9 38H19C20.6523 38 22 36.6523 22 35V15C22 13.3477 20.6523 12 19 12H9ZM29 12C27.3477 12 26 13.3477 26 15V35C26 36.6523 27.3477 38 29 38H55C56.6523 38 58 36.6523 58 35V15C58 13.3477 56.6523 12 55 12H29ZM9 14H19C19.5508 14 20 14.4492 20 15V32H8V15C8 14.4492 8.44922 14 9 14ZM29 14H52V20C52 20.5547 52.4492 21 53 21C53.5508 21 54 20.5547 54 20V14H55C55.5508 14 56 14.4492 56 15V35C56 35.5508 55.5508 36 55 36H54V30C54 29.4453 53.5508 29 53 29C52.4492 29 52 29.4453 52 30V36H29C28.4492 36 28 35.5508 28 35V15C28 14.4492 28.4492 14 29 14ZM13 15C12.4492 15 12 15.4453 12 16C12 16.5547 12.4492 17 13 17H15C15.5508 17 16 16.5547 16 16C16 15.4453 15.5508 15 15 15H13ZM30 23C29.4492 23 29 23.4453 29 24V26C29 26.5547 29.4492 27 30 27C30.5508 27 31 26.5547 31 26V24C31 23.4453 30.5508 23 30 23ZM53 23C52.4492 23 52 23.4453 52 24V26C52 26.5547 52.4492 27 53 27C53.5508 27 54 26.5547 54 26V24C54 23.4453 53.5508 23 53 23ZM8 34H20V35C20 35.5508 19.5508 36 19 36H9C8.44922 36 8 35.5508 8 35V34ZM7 40C6.44922 40 6 40.4453 6 41V43C6 43.5547 6.44922 44 7 44C7.55078 44 8 43.5547 8 43V41C8 40.4453 7.55078 40 7 40ZM12 40C11.4492 40 11 40.4453 11 41V43C11 43.5547 11.4492 44 12 44C12.5508 44 13 43.5547 13 43V41C13 40.4453 12.5508 40 12 40ZM17 40C16.4492 40 16 40.4453 16 41V43C16 43.5547 16.4492 44 17 44C17.5508 44 18 43.5547 18 43V41C18 40.4453 17.5508 40 17 40ZM22 40C21.4492 40 21 40.4453 21 41V43C21 43.5547 21.4492 44 22 44C22.5508 44 23 43.5547 23 43V41C23 40.4453 22.5508 40 22 40ZM27 40C26.4492 40 26 40.4453 26 41V43C26 43.5547 26.4492 44 27 44C27.5508 44 28 43.5547 28 43V41C28 40.4453 27.5508 40 27 40ZM32 40C31.4492 40 31 40.4453 31 41V43C31 43.5547 31.4492 44 32 44C32.5508 44 33 43.5547 33 43V41C33 40.4453 32.5508 40 32 40ZM37 40C36.4492 40 36 40.4453 36 41V43C36 43.5547 36.4492 44 37 44C37.5508 44 38 43.5547 38 43V41C38 40.4453 37.5508 40 37 40ZM42 40C41.4492 40 41 40.4453 41 41V43C41 43.5547 41.4492 44 42 44C42.5508 44 43 43.5547 43 43V41C43 40.4453 42.5508 40 42 40ZM47 40C46.4492 40 46 40.4453 46 41V43C46 43.5547 46.4492 44 47 44C47.5508 44 48 43.5547 48 43V41C48 40.4453 47.5508 40 47 40ZM52 40C51.4492 40 51 40.4453 51 41V43C51 43.5547 51.4492 44 52 44C52.5508 44 53 43.5547 53 43V41C53 40.4453 52.5508 40 52 40ZM57 40C56.4492 40 56 40.4453 56 41V43C56 43.5547 56.4492 44 57 44C57.5508 44 58 43.5547 58 43V41C58 40.4453 57.5508 40 57 40ZM28 48H36V52H28V48ZM23.6562 54H40.3438C41.1328 54 41.9062 54.3203 42.4648 54.8789L43.5859 56H20.4141L21.5352 54.8789C22.0938 54.3203 22.8672 54 23.6562 54Z" fill="#F15A29"/>
</svg>
