<svg width="50" height="50" viewBox="0 0 50 50" fill="none" xmlns="http://www.w3.org/2000/svg">
<g opacity="0.7">
<path d="M25 0.45166C24.4751 0.45166 23.9533 0.62561 23.523 0.970459L20.9229 3.07922C20.7489 3.2196 20.5292 3.28064 20.3064 3.24402L16.9983 2.71912C15.9058 2.54517 14.8346 3.16773 14.4409 4.19312L13.2416 7.32422C13.1623 7.52869 12.9975 7.69348 12.793 7.77283L9.66495 8.97217C8.6365 9.36584 8.017 10.4401 8.19095 11.5265L8.71585 14.8376C8.74942 15.0543 8.68838 15.2802 8.548 15.451L6.43924 18.0542C5.74649 18.9117 5.74649 20.1508 6.43924 21.0052L8.548 23.6084C8.68838 23.7823 8.74942 24.0051 8.71585 24.2218L8.19095 27.533C8.017 28.6194 8.6365 29.6936 9.66495 30.0903L12.793 31.2897C13.0005 31.369 13.1623 31.5338 13.2416 31.7383L14.0625 33.8776V46.9452C14.0625 47.7173 14.444 48.4375 15.0788 48.877C15.4755 49.1486 15.9394 49.2889 16.4063 49.2889C16.6901 49.2889 16.9739 49.2371 17.2486 49.1333L24.1577 46.4722C24.701 46.2646 25.2991 46.2646 25.8423 46.4722L32.7515 49.1302C33.4748 49.408 34.2835 49.3134 34.9213 48.877C35.5561 48.4375 35.9375 47.7173 35.9375 46.9452V33.8776L36.7585 31.7383C36.8378 31.5338 37.0026 31.369 37.2071 31.2897L40.3351 30.0903C41.3636 29.6936 41.9831 28.6194 41.8122 27.533L41.2873 24.2249C41.2537 24.0082 41.3117 23.7823 41.4521 23.6084L43.5608 21.0083C44.2536 20.1508 44.2536 18.9117 43.5608 18.0542L41.4521 15.4541C41.3117 15.2802 41.2537 15.0543 41.2873 14.8376L41.8122 11.5265C41.9861 10.4401 41.3636 9.36584 40.3351 8.97217L37.2071 7.77283C37.0026 7.69348 36.8378 7.52869 36.7585 7.32422L35.5591 4.19312C35.1624 3.16773 34.0943 2.54517 33.0048 2.71912L29.6936 3.24402C29.4709 3.28064 29.2511 3.2196 29.0802 3.07922L26.4771 0.970459C26.0468 0.62561 25.5249 0.45166 25 0.45166ZM25 2.01416C25.174 2.01416 25.3479 2.07214 25.4914 2.18506L28.0945 4.29382C28.6103 4.71191 29.2816 4.89197 29.9347 4.78821L33.2459 4.26331C33.606 4.20837 33.9661 4.41284 34.0973 4.75464L35.2997 7.88574C35.5378 8.50525 36.0291 8.99353 36.6455 9.23157L39.7736 10.434C40.1184 10.5652 40.326 10.9222 40.268 11.2823L39.7431 14.5935C39.6393 15.2496 39.8194 15.921 40.2344 16.4337L42.3462 19.0399C42.5751 19.3237 42.5751 19.7388 42.3462 20.0226L40.2375 22.6288C39.8194 23.1415 39.6393 23.8129 39.7431 24.469L40.271 27.7802C40.326 28.1403 40.1184 28.4973 39.7766 28.6285L36.6455 29.8309C36.0291 30.069 35.5378 30.5573 35.2997 31.1768L34.0973 34.3079C33.9661 34.6497 33.609 34.8572 33.2489 34.7992L29.9378 34.2743C29.2816 34.1705 28.6103 34.3506 28.0976 34.7687L25.4914 36.8774C25.2076 37.1094 24.7925 37.1063 24.5087 36.8774L21.9025 34.7687C21.4844 34.4269 20.9626 34.2438 20.4254 34.2438C20.3064 34.2438 20.1844 34.256 20.0623 34.2743L16.7511 34.7992C16.3971 34.8572 16.034 34.6497 15.9027 34.3048L14.7003 31.1768C14.4623 30.5573 13.971 30.069 13.3515 29.8309L10.2234 28.6285C9.88162 28.4973 9.6741 28.1403 9.72903 27.7802L10.2539 24.469C10.3607 23.8129 10.1807 23.1415 9.7626 22.6288L7.65384 20.0226C7.4219 19.7388 7.4219 19.3237 7.65384 19.0399L9.7626 16.4337C10.1807 15.921 10.3607 15.2496 10.2539 14.5966L9.72903 11.2854C9.6741 10.9222 9.88162 10.5652 10.2234 10.434L13.3515 9.23157C13.971 8.99658 14.4623 8.50525 14.7003 7.88574L15.9027 4.75464C16.034 4.41284 16.3971 4.20837 16.7511 4.26331L20.0623 4.78821C20.7184 4.89197 21.3898 4.71191 21.9025 4.29382L24.5087 2.18506C24.6491 2.07214 24.823 2.01416 25 2.01416ZM24.8291 8.59375C21.994 8.63953 19.2932 9.77173 17.2669 11.7981C15.2008 13.8641 14.0625 16.6107 14.0625 19.5312C14.0625 19.9615 14.4104 20.3125 14.8438 20.3125C15.2771 20.3125 15.625 19.9615 15.625 19.5312C15.625 17.0288 16.6016 14.6729 18.3716 12.9028C20.3553 10.9161 23.1018 9.93347 25.9003 10.199C26.3489 10.2417 26.7121 9.92432 26.7517 9.49707C26.7914 9.06677 26.4771 8.6853 26.0498 8.64258C25.6409 8.60596 25.232 8.58765 24.8291 8.59375ZM29.8218 9.77478C29.5166 9.74731 29.2145 9.8999 29.0619 10.1868C28.8605 10.5682 29.007 11.0413 29.3854 11.2427C29.9836 11.557 30.5481 11.9415 31.0639 12.381C31.2104 12.5061 31.3904 12.5671 31.5674 12.5671C31.7902 12.5671 32.0099 12.4725 32.1656 12.2925C32.4463 11.9629 32.4036 11.4685 32.0771 11.1908C31.4728 10.6781 30.8136 10.2295 30.1178 9.86328C30.0232 9.8114 29.9225 9.78088 29.8218 9.77478ZM33.609 13.5437C33.5114 13.559 33.4107 13.5925 33.3161 13.6475C32.9468 13.8702 32.8278 14.3494 33.0475 14.7217C34.5459 17.2211 34.7901 20.3339 33.6945 23.0438C33.5327 23.4436 33.725 23.9014 34.1278 24.0601C34.2224 24.0997 34.3232 24.118 34.4208 24.118C34.729 24.118 35.022 23.9319 35.1441 23.6298C36.4197 20.4651 36.1359 16.8365 34.3872 13.916C34.2224 13.6383 33.9112 13.501 33.609 13.5437ZM16.3208 22.2626C16.2201 22.2595 16.1133 22.2778 16.0157 22.3175L14.5661 22.9034C14.1663 23.0652 13.974 23.5199 14.1358 23.9227C14.2578 24.2249 14.5508 24.411 14.859 24.411C14.9567 24.411 15.0574 24.3927 15.152 24.353L16.6016 23.7671C17.0014 23.6053 17.1936 23.1506 17.0319 22.7509C16.9098 22.4518 16.626 22.2687 16.3208 22.2626ZM18.3716 25.3784C18.1702 25.3784 17.9718 25.4547 17.8192 25.6073L16.7145 26.712C16.4093 27.0172 16.4093 27.5116 16.7145 27.8168C16.8671 27.9694 17.0655 28.0457 17.2669 28.0457C17.4683 28.0457 17.6667 27.9694 17.8192 27.8168L18.924 26.712C19.2292 26.4069 19.2292 25.9125 18.924 25.6073C18.7714 25.4547 18.57 25.3784 18.3716 25.3784ZM31.6284 25.3784C31.4301 25.3784 31.2287 25.4547 31.0761 25.6073C30.7709 25.9125 30.7709 26.4069 31.0761 26.712L32.1808 27.8168C32.3334 27.9694 32.5318 28.0457 32.7332 28.0457C32.9346 28.0457 33.133 27.9694 33.2856 27.8168C33.5907 27.5116 33.5907 27.0172 33.2856 26.712L32.1808 25.6073C32.0282 25.4547 31.8268 25.3784 31.6284 25.3784ZM21.3379 27.3804C21.0358 27.3773 20.7428 27.5574 20.6177 27.8564L20.0074 29.2938C19.8365 29.6906 20.0226 30.1483 20.4224 30.3192C20.5201 30.3589 20.6238 30.3802 20.7276 30.3802C21.0297 30.3802 21.3196 30.2002 21.4447 29.9042L22.0551 28.4668C22.226 28.0701 22.0398 27.6093 21.6431 27.4414C21.5424 27.3987 21.4417 27.3804 21.3379 27.3804ZM28.5248 27.4414C28.4211 27.4384 28.3203 27.4567 28.2196 27.4994C27.8199 27.6581 27.6276 28.1158 27.7863 28.5156L28.3722 29.9652C28.4943 30.2673 28.7873 30.4535 29.0985 30.4535C29.1962 30.4535 29.2939 30.4352 29.3885 30.3955C29.7882 30.2338 29.9836 29.7791 29.8218 29.3793L29.2359 27.9297C29.1138 27.6306 28.8269 27.4475 28.5248 27.4414ZM25 28.125C24.5667 28.125 24.2188 28.476 24.2188 28.9062V30.4688C24.2188 30.899 24.5667 31.25 25 31.25C25.4334 31.25 25.7813 30.899 25.7813 30.4688V28.9062C25.7813 28.476 25.4334 28.125 25 28.125ZM20.3064 35.8185C20.5292 35.7819 20.7489 35.8459 20.9198 35.9833L23.523 38.092C23.9533 38.4369 24.4751 38.6108 25 38.6108C25.5249 38.6108 26.0468 38.4369 26.4771 38.092L29.0802 35.9833C29.2511 35.8429 29.4739 35.7849 29.6936 35.8185L33.0048 36.3403C33.4839 36.4166 33.9569 36.3312 34.375 36.1328V46.9452C34.375 47.2046 34.253 47.4396 34.0363 47.5861C33.8196 47.7356 33.5541 47.7661 33.313 47.6715L26.4038 45.0165C25.4975 44.6686 24.4995 44.6686 23.5962 45.0165L16.687 47.6715C16.4429 47.7661 16.1774 47.7356 15.9638 47.5861C15.7471 47.4396 15.625 47.2046 15.625 46.9452V36.1328C16.0401 36.3312 16.5161 36.4197 16.9953 36.3434L20.3064 35.8185Z" fill="#F15A29"/>
</g>
</svg>
