<svg width="64" height="64" viewBox="0 0 64 64" fill="none" xmlns="http://www.w3.org/2000/svg">
<path d="M49 5C42.3828 5 37 10.3828 37 17C37 23.2773 41.8516 28.4375 48 28.9492V34.5859L45.707 32.293C45.3164 31.9023 44.6836 31.9023 44.293 32.293C43.9023 32.6836 43.9023 33.3164 44.293 33.707L48.2344 37.6484C47.7305 37.7734 47.2578 38.0156 46.8789 38.3906L38.3945 46.8789C37.8281 47.4453 37.5156 48.1992 37.5156 49C37.5156 49.8008 37.8281 50.5547 38.3945 51.1211L46.8789 59.6055C47.4453 60.1719 48.1992 60.4844 49 60.4844C49.8047 60.4844 50.5547 60.1719 51.1211 59.6055L59.6094 51.1211C60.1758 50.5547 60.4844 49.8008 60.4844 49C60.4844 48.1992 60.1758 47.4453 59.6094 46.8789L51.1211 38.3945C50.7422 38.0156 50.2695 37.7773 49.7656 37.6523L53.707 33.707C54.0977 33.3164 54.0977 32.6875 53.707 32.2969C53.3164 31.9023 52.6836 31.9023 52.293 32.2969L50 34.5859V28.9492C56.1484 28.4375 61 23.2773 61 17C61 10.3828 55.6172 5 49 5ZM37 17C37 16.8711 36.9727 16.7383 36.9219 16.6172C36.8711 16.4961 36.8008 16.3867 36.707 16.293L32.707 12.293C32.3164 11.9023 31.6836 11.9023 31.293 12.293C30.9023 12.6836 30.9023 13.3164 31.293 13.707L33.5859 16H26V9C26 7.34766 24.6523 6 23 6H7C5.34766 6 4 7.34766 4 9V25C4 26.6523 5.34766 28 7 28H23C24.6523 28 26 26.6523 26 25V18H33.5859L31.293 20.293C30.9023 20.6836 30.9023 21.3164 31.293 21.707C31.4883 21.9023 31.7422 22 32 22C32.2578 22 32.5117 21.9023 32.707 21.707L36.707 17.707C36.8008 17.6133 36.8711 17.5039 36.9219 17.3828C36.9727 17.2617 37 17.1289 37 17ZM15 28C14.8711 28 14.7383 28.0273 14.6172 28.0781C14.4961 28.1289 14.3867 28.1992 14.293 28.293L10.293 32.293C9.90234 32.6836 9.90234 33.3164 10.293 33.707C10.6836 34.0977 11.3164 34.0977 11.707 33.707L14 31.4141V38C14 38.0859 14.0273 38.1641 14.0469 38.2422C13.7305 38.4141 13.4609 38.668 13.2695 38.9961L4 55.0273C3.64062 55.6523 3.64062 56.3984 4 57.0273C4.36328 57.6523 5.00781 58 5.73438 58H24.2656C24.9883 58 25.6367 57.6523 26 57.0273C26.3594 56.3984 26.3594 55.6523 26 55.0273L16.7305 38.9961C16.5391 38.668 16.2695 38.4141 15.9531 38.2422C15.9727 38.1641 16 38.0859 16 38V31.4141L18.293 33.707C18.4883 33.9023 18.7422 34 19 34C19.2578 34 19.5117 33.9023 19.707 33.707C20.0977 33.3164 20.0977 32.6836 19.707 32.293L15.707 28.293C15.6133 28.1992 15.5039 28.1289 15.3828 28.0781C15.2617 28.0273 15.1289 28 15 28ZM49 7C54.5156 7 59 11.4844 59 17C59 22.5156 54.5156 27 49 27C43.4844 27 39 22.5156 39 17C39 11.4844 43.4844 7 49 7ZM7 8H23C23.5508 8 24 8.44922 24 9V25C24 25.5508 23.5508 26 23 26H7C6.44922 26 6 25.5508 6 25V9C6 8.44922 6.44922 8 7 8ZM49 39.5156C49.2695 39.5156 49.5195 39.6211 49.707 39.8086L58.1914 48.2969C58.3789 48.4844 58.4844 48.7344 58.4844 49C58.4844 49.2695 58.3789 49.5195 58.1914 49.707L49.7031 58.1914C49.3281 58.5703 48.6719 58.5703 48.293 58.1914L39.8086 49.707C39.6172 49.5195 39.5156 49.2695 39.5156 49C39.5156 48.7305 39.6172 48.4805 39.8086 48.293L48.293 39.8086C48.4805 39.6211 48.7305 39.5156 49 39.5156ZM15 40L24.2656 56.0273H5.73438L15 40ZM25 47C24.4492 47 24 47.4492 24 48V50C24 50.5508 24.4492 51 25 51C25.5508 51 26 50.5508 26 50V48C26 47.4492 25.5508 47 25 47ZM30 47C29.4492 47 29 47.4492 29 48V50C29 50.5508 29.4492 51 30 51C30.5508 51 31 50.5508 31 50V48C31 47.4492 30.5508 47 30 47ZM35 47C34.4492 47 34 47.4492 34 48V50C34 50.5508 34.4492 51 35 51C35.5508 51 36 50.5508 36 50V48C36 47.4492 35.5508 47 35 47Z" fill="#F15A29"/>
</svg>
